{
	"asset":{
		"generator":"Khronos glTF Blender I/O v4.0.44",
		"version":"2.0"
	},
	"extensionsUsed":[
		"KHR_materials_specular",
		"KHR_materials_ior"
	],
	"scene":0,
	"scenes":[
		{
			"name":"Scene",
			"nodes":[
				0
			]
		}
	],
	"nodes":[
		{
			"mesh":0,
			"name":"mesh.001",
			"rotation":[
				0.7071068286895752,
				0,
				0,
				0.7071068286895752
			]
		}
	],
	"materials":[
		{
			"doubleSided":true,
			"extensions":{
				"KHR_materials_specular":{
					"specularFactor":0
				},
				"KHR_materials_ior":{
					"ior":1.4500000476837158
				}
			},
			"name":"base_material.001",
			"pbrMetallicRoughness":{
				"baseColorTexture":{
					"index":0
				},
				"metallicRoughnessTexture":{
					"index":1
				}
			}
		}
	],
	"meshes":[
		{
			"name":"mesh.001",
			"primitives":[
				{
					"attributes":{
						"POSITION":0,
						"NORMAL":1,
						"TEXCOORD_0":2
					},
					"indices":3,
					"material":0
				}
			]
		}
	],
	"textures":[
		{
			"sampler":0,
			"source":0
		},
		{
			"sampler":0,
			"source":1
		}
	],
	"images":[
		{
			"mimeType":"image/jpeg",
			"name":"squirrel_albedo",
			"uri":"squirrel_albedo.jpg"
		},
		{
			"mimeType":"image/png",
			"name":"squirrel_metalness-squirrel_roughness",
			"uri":"squirrel_metalness-squirrel_roughness.png"
		}
	],
	"accessors":[
		{
			"bufferView":0,
			"componentType":5126,
			"count":3580,
			"max":[
				0.24384400248527527,
				0.4984489977359772,
				0.439983993768692
			],
			"min":[
				-0.2649509906768799,
				-0.4997589886188507,
				-0.4542100131511688
			],
			"type":"VEC3"
		},
		{
			"bufferView":1,
			"componentType":5126,
			"count":3580,
			"type":"VEC3"
		},
		{
			"bufferView":2,
			"componentType":5126,
			"count":3580,
			"type":"VEC2"
		},
		{
			"bufferView":3,
			"componentType":5123,
			"count":14610,
			"type":"SCALAR"
		}
	],
	"bufferViews":[
		{
			"buffer":0,
			"byteLength":42960,
			"byteOffset":0,
			"target":34962
		},
		{
			"buffer":0,
			"byteLength":42960,
			"byteOffset":42960,
			"target":34962
		},
		{
			"buffer":0,
			"byteLength":28640,
			"byteOffset":85920,
			"target":34962
		},
		{
			"buffer":0,
			"byteLength":29220,
			"byteOffset":114560,
			"target":34963
		}
	],
	"samplers":[
		{
			"magFilter":9729,
			"minFilter":9987
		}
	],
	"buffers":[
		{
			"byteLength":143780,
			"uri":"squirrel.bin"
		}
	]
}
